# xmcd
#
# Track frame offsets: 
#        150
#        16200
#        36011
#        52043
#        69451
#        85019
#        99876
#        119319
#        132602
#        149650
#        165641
#        183788
#
# Disc length: 2706 seconds
#
# Revision: 0
# Processed by: cddbd v1.5.2PL0 Copyright (c) Steve Scherf et al.
# Submitted via: ExactAudioCopy v1.1
#
DISCID=9e0a900c
DTITLE=Aurea - Restart
DYEAR=2016
DGENRE=Soul
TTITLE0=Blind Woman
TTITLE1=I Didn't Mean It
TTITLE2=Killer
TTITLE3=I Feel Love Inside
TTITLE4=Hold Me In Your Arms
TTITLE5=Listen What I Say
TTITLE6=Saints and Sinners
TTITLE7=Something Something
TTITLE8=My Time On Your Love
TTITLE9=That's What I'm Gonna Do
TTITLE10=Too Old Too Soon
TTITLE11=Restart
EXTD=
EXTT0=
EXTT1=
EXTT2=
EXTT3=
EXTT4=
EXTT5=
EXTT6=
EXTT7=
EXTT8=
EXTT9=
EXTT10=
EXTT11=
PLAYORDER=
